<svg xmlns="http://www.w3.org/2000/svg" xmlns:xlink="http://www.w3.org/1999/xlink" width="400" height="400" viewBox="0 0 400 400">
  <defs>
    <filter id="ic_launcher_foreground-a" width="200%" height="200%" x="-50%" y="-50%" filterUnits="objectBoundingBox">
      <feOffset dy="2" in="SourceAlpha" result="shadowOffsetOuter1"/>
      <feGaussianBlur in="shadowOffsetOuter1" result="shadowBlurOuter1" stdDeviation="1"/>
      <feColorMatrix in="shadowBlurOuter1" result="shadowMatrixOuter1" values="0 0 0 0 0   0 0 0 0 0   0 0 0 0 0  0 0 0 0.24 0"/>
      <feMerge>
        <feMergeNode in="shadowMatrixOuter1"/>
        <feMergeNode in="SourceGraphic"/>
      </feMerge>
    </filter>
    <linearGradient id="ic_launcher_foreground-b" x1="50%" x2="45.939%" y1="25.163%" y2="82.134%">
      <stop offset="0%" stop-opacity=".2"/>
      <stop offset="100%" stop-opacity="0"/>
    </linearGradient>
    <path id="ic_launcher_foreground-c" d="M28.6458333,63.5416667 C18.5781426,63.5416667 10.4166667,55.3801908 10.4166667,45.3125 C10.4166667,35.2448092 18.5781426,27.0833333 28.6458333,27.0833333 C38.7135241,27.0833333 46.875,35.2448092 46.875,45.3125 C46.875,55.3801908 38.7135241,63.5416667 28.6458333,63.5416667 Z M28.6458333,58.3333333 C35.837041,58.3333333 41.6666667,52.5037077 41.6666667,45.3125 C41.6666667,38.1212923 35.837041,32.2916667 28.6458333,32.2916667 C21.4546257,32.2916667 15.625,38.1212923 15.625,45.3125 C15.625,52.5037077 21.4546257,58.3333333 28.6458333,58.3333333 Z"/>
  </defs>
  <g fill="none" fill-rule="evenodd" filter="url(#ic_launcher_foreground-a)" transform="translate(130 75)">
    <g transform="translate(9.167 75)">
      <path fill="#E65100" fill-rule="nonzero" d="M60.8333333,0.694444444 C27.2395833,0.694444444 0.0694444444,27.8645833 0.0694444444,61.4583333 C0.0694444444,107.03125 60.8333333,174.305556 60.8333333,174.305556 C60.8333333,174.305556 121.597222,107.03125 121.597222,61.4583333 C121.597222,27.8645833 94.4270833,0.694444444 60.8333333,0.694444444 Z"/>
      <ellipse cx="61.25" cy="65.417" fill="#FFF" rx="31.25" ry="31.25"/>
    </g>
    <polygon fill="url(#ic_launcher_foreground-b)" points="39.478 86.469 60.724 91.323 105.521 183.982 36.471 196.265" transform="rotate(-45 70.996 141.367)"/>
    <g transform="translate(.208)">
      <path fill="#000" d="M70.0406447,155.995383 C63.9503949,155.995383 59.5115054,153.905953 58.1700962,153.160834 C33.4759412,139.443862 24.7279809,135.625033 8.37970526,123.389749 C-7.96857034,111.154466 6.10357941,103.09254 8.47763035,101.764177 C10.6142871,99.8093308 11.4650309,94.5535618 11.4650309,93.1283986 C12.8225746,67.5897163 17.3175467,26.5333618 45.5807042,15.1631504 C47.374827,14.6138926 49.7611945,13.8355558 50.9293381,12.1195497 C61.2110025,6.81906459 65.922355,0.0532973223 70.0846676,0.0532973223 C73.6158493,0.0532973223 79.9085645,7.83104106 88.4908261,12.1195497 C89.9317727,14.1103854 91.6459876,15.1631504 93.8394601,15.1631504 C122.102618,26.5333618 126.59759,67.5897163 127.955133,93.1283986 C128.787849,94.0968371 130.479509,97.2227577 130.942534,101.764177 C133.316585,103.09254 147.388735,111.154466 131.040459,123.389749 C114.692183,135.625033 105.944223,139.443862 81.250068,153.160834 C79.9086589,153.905953 75.4697694,155.995383 69.3795195,155.995383"/>
      <path fill="#FFF" d="M45.5807042 15.1631504C46.2790649 13.7858352 49.368929 12.1195497 50.9293381 12.1195497 61.199203 14.446872 76.3879631 15.1631504 88.4908261 12.1195497 91.6452258 12.9774779 93.0348749 14.128563 93.8394601 15.1631504 87.0862716 20.5740453 49.042233 19.3292148 45.5807042 15.1631504zM8.42518198 101.71088C8.88820684 97.1694604 10.5798669 94.0435398 11.4125825 93.0751012 19.6752607 125.490563 128.041224 119.676817 128.041224 93.3121503 128.87394 94.2805888 130.5656 97.4065094 131.028625 101.947929 121.641989 122.67527 33.958763 133.534188 8.42518198 101.71088z"/>
      <g transform="translate(40.625 25)">
        <path fill="#FFF" d="M30.9164999,0 L26.4347264,0 C26.4347264,0 26.9363053,6.08544248 25.9177386,6.60490795 C23.0365363,8.074311 22.6233547,3.48422714 18.9899079,4.39875751 C16.2785359,5.08120375 14.4702888,6.37868836 13.8289719,9.91944069 C13.3664257,12.4731888 13.1811646,15.2083842 16.7821818,16.5877585 C19.0491198,17.4561119 19.0644616,22.7125397 17.8078568,23.944489 C17.1219064,25.3277902 12.34585,26.8068104 8.41634971,24.7894474 C9.18131467,31.5282317 10.3599297,38.4843592 0,45.2289473 C10.3599297,51.6514495 8.91014719,57.9116016 8.91014719,65.3068301 C21.4728411,62.7085408 26.2567174,70.2327526 28.5377268,73.8114196 C28.5921779,73.4781994 35.8783852,62.7085408 48.4410791,65.3068301 C48.4410791,57.9116016 46.9912967,51.6514495 57.3512263,45.2289473 C46.9912967,38.4843592 48.1699117,31.5282317 48.9348766,24.7894474 C45.0053764,26.8068104 40.2293199,25.3277902 39.5433695,23.944489 C38.2867647,22.7125397 38.3021066,17.4561119 40.5690445,16.5877585 C44.1700618,15.2083842 43.9848006,12.4731888 43.5222544,9.91944069 C42.8809376,6.37868836 41.0726905,5.08120375 38.3613184,4.39875751 C34.7278716,3.48422714 34.31469,8.074311 31.4334878,6.60490795 C30.414921,6.08544248 30.9164999,0 30.9164999,0 Z"/>
        <path fill="#000" d="M26.8955127,11.5079423 C25.1037013,11.5079423 22.6941486,12.63158 22.546013,13.5499378 C19.8974923,11.5079423 18.7239534,12.9402376 17.7529181,13.4319621 C16.5010296,10.1437439 18.5135884,9.09037887 20.0761319,9.02905463 C21.6386755,8.96773039 23.6352872,11.1339976 26.8955127,11.5079423 Z M29.8611111,11.5079423 C33.1213366,11.1339976 35.1179483,8.96773039 36.6804919,9.02905463 C38.2430354,9.09037887 40.2555942,10.1437439 39.0037057,13.4319621 C38.0326704,12.9402376 36.8591315,11.5079423 34.2106108,13.5499378 C34.0624752,12.63158 31.6529225,11.5079423 29.8611111,11.5079423 Z"/>
        <use fill="#000" xlink:href="#ic_launcher_foreground-c"/>
      </g>
    </g>
  </g>
</svg>
